# xmcd
#
# Track frame offsets:
#	183
#	18078
#	40620
#	59538
#	81485
#	103430
#	126765
#	148038
#	171338
#	189823
#
# Disc length: 2774 seconds
#
# Revision: 1
# Processed by: cddbd v1.5.2PL0 Copyright (c) Steve Scherf et al.
# Submitted via: audiograbber 1.83.01
#
DISCID=870ad40a
DTITLE=Ronnie Caryl - RONNIE CARYL - Leave A Light On
DYEAR=1994
DGENRE=Blues
TTITLE0=Somewhere Within
TTITLE1=One Of Those Days
TTITLE2=Sweet Love
TTITLE3=Leave A Light On
TTITLE4=Where Would I Be
TTITLE5=Where The Wind Blows
TTITLE6=Jealousy
TTITLE7=Only You
TTITLE8=Don't Let Me Go
TTITLE9=Here I Go
EXTD=
EXTT0=
EXTT1=
EXTT2=
EXTT3=
EXTT4=
EXTT5=
EXTT6=
EXTT7=
EXTT8=
EXTT9=
PLAYORDER=
